<mxfile host="app.diagrams.net" agent="Mozilla/5.0 (Windows NT 10.0; Win64; x64) AppleWebKit/537.36 (KHTML, like Gecko) Chrome/128.0.0.0 Safari/537.36" version="24.7.12">
  <diagram id="C5RBs43oDa-KdzZeNtuy" name="Page-1">
    <mxGraphModel dx="1254" dy="638" grid="0" gridSize="10" guides="0" tooltips="1" connect="1" arrows="1" fold="1" page="1" pageScale="1" pageWidth="827" pageHeight="1169" background="none" math="0" shadow="0">
      <root>
        <mxCell id="WIyWlLk6GJQsqaUBKTNV-0" />
        <mxCell id="WIyWlLk6GJQsqaUBKTNV-1" parent="WIyWlLk6GJQsqaUBKTNV-0" />
        <mxCell id="yVTxIt7hRY4I177YX7u2-104" style="edgeStyle=orthogonalEdgeStyle;rounded=0;orthogonalLoop=1;jettySize=auto;html=1;strokeColor=#000000;" parent="WIyWlLk6GJQsqaUBKTNV-1" source="yVTxIt7hRY4I177YX7u2-15" target="yVTxIt7hRY4I177YX7u2-17" edge="1">
          <mxGeometry relative="1" as="geometry">
            <Array as="points">
              <mxPoint x="353" y="314" />
              <mxPoint x="353" y="314" />
            </Array>
          </mxGeometry>
        </mxCell>
        <mxCell id="yVTxIt7hRY4I177YX7u2-15" value="" style="shape=image;verticalLabelPosition=bottom;labelBackgroundColor=none;verticalAlign=top;imageAspect=0;image=data:image/jpeg,/9j/4AAQSkZJRgABAQAAAQABAAD/2wCEAAoHCBUWFRgVFhUSGBUVGBEVFRYYEhESGBgYGBgZGRgaGBgcIS4lHB4rHxgYJjgmKy8xNTU1GiQ7QDs0Py40NTEBDAwMEA8QHhISHDYrJSs0NDQ2NDQ0PzQ0NDQ0NDQ0MTY0NDQ0NDQ0NDU0NDQ0NDQ0NDQ0NDQ0NDQ0NDQ0NDQ0NP/AABEIAOEA4QMBIgACEQEDEQH/xAAcAAACAgMBAQAAAAAAAAAAAAABAgADBQYHBAj/xABBEAABAgQEAwUFBQYFBQEAAAABAAIDESExBBJBUWFxgQUGIpGxEzKhwdEHI0Jy4RZSYtLw8RVjkpOiF0NTc8Iz/8QAGgEBAAIDAQAAAAAAAAAAAAAAAAQFAQIDBv/EACwRAQACAQMDAwMEAgMAAAAAAAABAgMEETESEyEFQVEUUnEiYYGRMkIVI1P/2gAMAwEAAhEDEQA/AOMhZbsDsDEYyKIUCGXupmNmMafxPdYD4nSZU7udiRcZiGYeEPE+7pTaxg957uAHmZC5X033d7Bg4KC2DBbIATc6QzPdKrnHdBpvdz7I8LBAdiScREuWzLIY4Boqeq3zA9jYaCAIUCDDl+5DY0+YEyvc0JkACJKreZWvsiw+aB1AUVW8y5oHKiRhnzViAAqFJE5yQYZ3vsgsUBUSuQMVFUx07q1AJooOCrDqyP8AdBaEJpkrggKgVIfppur0AmooQqc2mm6CnF9mQYolEgwog/jhsf6haV3h+ynAxwTCacPE0LKsnxYfkughFB8p96e6eJwD8sZvgM/ZxW1Y8cDo7dpr0qtfkvrvtXs6FiIboEVocx4k4ETlsQdCN180d+O678BiTCdN0N3jgxJUcydvzNsRyNiEGtqKKIPoD7Fe74g4Q4lw+8xBOU7Q2mTZczMrpYCx/YWDEHDwYQEhDhQmdWtAPxmsgCgrcCKjqFHRBKlSbIvdLmbKvIRW+4+iCxjdTdRzdR1G6YOnZB75IF9qJT+HFFrdTf0VeQ+9rsrmumgR7NRf1UEUS47JnOAVOQnxa6BBY1pJmeg2Re3a6rfiGtE3ODQLzICxuJ7yYdn483BrS742WYraeIazeteZZVsQa0IuoBmqbaBaxF71MJmIcQ7TyN86lD9sh/4T/uD+VdOzf4aTmpHu2pzZpWv0NCFrH7ZDWC7o8H5I/tZDd7zIjeWV3zCdnJ8Md/H8tlHirppxTuaCsNhu8uHdQuLTs4FvxssvCjNcJtcCNwQQuc1tXmHSL1niRa7Q9DulM3fl9UD4uQ1TMdKhv6rDYxaJSSh0qHoVaqXHNQWFz9EELsxkLan5J8glJKwyoehVqClpIMjbQpiZ0HUoPM6DqUrTlobaH6oLGtkJLTvtQ7vDFYF8hOJABiwzr4R4h1bPyW6JIjQQQRMEEEbg0KD42UXYf+mKCDtiqcctvJWFKG+aAQxrOZKsVUstdNeCLogAn5IEf4TMa3CMITqan0Ra3U39FC2VR1CC1UxBKo68U3tBKaDGzqeg2QLDE/EfLZYLvD257L7tks93OuGjSm6z72yqOo3XMsbHL4j3H8TnnpOnwku+nxxe3n2R9Rkmtdo91eJjOeS57nOO5M1UKrae6vZDHt9s8B1SGtNQJXJ3We7R7JhRGkFrQZSaQACDpJSJz1rbp2R4wWtXqmXO0pCeMwsc5pu0lp5gySXUnffhG2KDNOo4IAoCQrcHjXw3TY4t3Gh5jVU35IkLExE8sxMxw6F2F2u2O2Ug17ZZm/McFlHMmuZdl4wwojXjQjNxafeHkulZs1BbU/RV2fH0W8cSscGSb188wQOJ8M+u6va2SUsEpeSjHaG++64u5nCapzmeWfX+tU7iTQdSmDBKSAtbJQiaQOlQ9Co5+gvrwQKHEU+KuAStYAi0IJIKJlEAKiKqcZckDPdIfJUgESJA+itYzU304KxAoM0HuACrf4a6bIwxPxHoNkCZT70hvJXtdNMqnDLUW1CBnFcndUz4rqgrU2rJcuLVL0nv/CHq/ZtXdTtVgb7FxDSCcpJkDO4nus/je0ocNhc5zaCgBBJOwC5o5Sc10tpom2+7nTUTFenY2IiF7nPNC5znS5lKCiECFJiNkaZ3kyQiaAM1YkhQUVCEAUYK+x5FdSwbvA0a5W9aBcueKHkV1LDtmxu+Vsj0Ciav2TdLzL0ql9aDqdkA8nw66lWtElCTVcMy8J6cVckc2aqzn3dd0DRHT8Iv6IQ/DQ62O6sa2SLmzQMgqw4il07QgZRBRBCUobumKKCknL+X0TucAJqPcAKqlrZSJFNBsgcNnU9Ap7tRbbZLicS1jS5xAaLlaX2p3kiPJawljdJe8eZ06LpjxWvPhzyZa0jy3WJiGNE3OaObgPVecY6ETMxIctBnZ9VzN1amvOqYKTGk+ZRp1c+0OknHQgZ+1h8Rnb9Vjf8ADsB/lf7x/mWkEKvKsxpprxMtJ1PVzEN5HZmBP/il/wC538yjuy8CKj2XL2x/mWlBFZ7FvuljvR9sN2b2bgJf9r/fd/Ml/wANwJP/AGpD/ONf+S0chOE7Fvuk70fbB47AHuy2DnAa0mZJJopCpMI8pNTKiEQjBXGh5FdPgv8AA0Tl4WzO1AuXv15FdHefuWjUNZPyCgeoX6MfV8bp2ije0w9Ze2VHNnoZhM3ENsXNnzCwBCrfWgvvsvMR6vb3rC3+m/dsrnzoL77IiGJS+K1/C4hzKA8wbFZzC4gPFLi4VhpddTPPTttLjkw2p59ljXaFF79BdLFrTX0QhUMjffdTnI4Z56lMEyiAKIqIAQkJy8k5KTJO6ANEzM9AnVYOWhtoUmMjhjHONmtcfILMRuxM7Q0nvT2iXxPZtP3bNNC7U9LDqsIEXuLiXG5mT1qgFaY6dNYhVXtNrTMigUUpqujQRVRCyZYClG/JC/JEoCoVAggk0QEJIgowBQBRJUyoyjhQ8iui4ofcNlfKz0C52G5qC5oOZoF0XHnLDDRcBo8lWeqzHZn8Sn6CP1/0xGedNU7GS5pMkrXTNfPmvCS9AjxPmrMHiC1w40PJVvdoLpfZ04rfFeaXi0cw1tWLRs2ZjZdblM5s15sBFzNE7yA8l6HOlzK9hjv10i0e6smNp2BriKG6sASNZvdMCt2DKITUQQooFJmldAXylVYPvLELcO+c5OytHVw+U1mg2dTbQLA98z9w0bxGejj8lvj82hplnaktJChSiil1bKlPRNJRBYBSFNfkjJGARXowvZ0WJVjHOG8pDzKyDe7OINgzq8fILS2SleZdIx3niGFKYLNDutiNof8ArP0QPdfECsofLOfote9j+We1f4YdI5Zv9msQbCHx8f6I/stiNof+s/RO9j+We1f4YVqJWZ/ZXEbQ/wDWfovfge6wmDEdm3a0SA5uNT0S2fHEb7kYLzPDwd2uzHPiCJLwMMwd3aS5LY8dGBOUfhnm5q6LHZDaGMkJUpYLGPbWevqvK+ra+Mn/AF1n8rrR6bojeTKuJwujn2uixsueqoOFgWH8Vakc3zQz+acsst2efDLUOMutV7oWs7/1ZY7sUe9O/h+ayjmz+S9Vobb4KqzLG15OgUgfobpgpjmKiiiCJC2d7JyigpDpGR6FYPvmPuQdojD8HD5rPuAlVYTvJDzYd4P4ZOFL5XA+k1vi8WhpljestDupZFQhWypRA1Sp1gLZbZ2D3faQIkYTn4mtNpbn6LFd28AIsYTHhZ4ncToD19Fs/aeJM8jScv4j8pqt9Q1kYKSnaTB3J3ldH7QaPCwTAoSKDkFR/iDxYNltIrzABQheQyeoZ72332/C7rgpWOHrHaT/AOHySu7TeaAt4mVvivE47deCZrRKi5/WZ/ult2qfD1DHvFRl4iSdvabj+75LySVTqGnVPrM/3T/Z2qfD3P7TfYZZ8rKmJHcfxHiLTVTBRMtbarLbxNp/tmMdI4gGlBztNUjzK100Mea4NwyG+qZrpplW+9LoGe6XNLk11Rh/HVOU4GQ7FdPNv4fmso90ljOz2gNJ1Jp0ovfCre69Voa7YKq7LP65OGam6YFMgVMchUQUQQpc0rp1URm5IBUn+EfFLjIAexzDZzXN8wnD5GR6HdWJE7MTG8OTuaWktNwSDzBkUBXksz3owWSKXAeGJ4mnTN+IfPqsM1WtLdVYlVXr02mBkhOSZKRNbtG29zGzY8j95oJ5C3xXoj1c7mfVVdzHShxJ2z35tCtiXPN3qV5P12Z3j8yvvT4/SqnLko506DqVHGdB1QHh5LzqxOGyCWUuSsCre7QX9EgRz9AmaJJA2XHdWBAkpVHUKF+10Xu0F0oZKvmgZjZc0HN1CcFK53msAZ9r7Jmt80gZKuuqsDlkK5mouh7T+yZ7pKzBYYudPap+i6Ysdr3iscy1vaKxvLMYCFJjZ3lPlNeh7Z1Fwowz+iLnSXr8dOisVj2VkzvO4NfvcJmpMhNTdO0rdgyiiiAFFApQdCgj2giqpa4nwk9d058X5fVM5gIl5cEHm7RwLIzCx1jUEXB0IWhdp9kRIJIc0lmjwCW9dl0Zh0N0rvFTTVdcWa1Pw45cMXcoa7irAumu7Ngm8KGeJhsJ9FWOz4IMjBhcD7Nn0Uj6v9nD6Wflh+5o+6f+b/5CR5Ic4TpmPqtghwmtmGNa0GpytDR8NVhIjakcXepXm/W79XTb91poq9MTUoCJVc5Gtt0XO0F/RUCeBdKg/sna2SgYAEhMuSciwqpxymmumyzAjwZASbOQ/D+iZj4A/dJ1OX9FYV0NPfJDh3p+2WIaNd0yyntIItlltltyoicTA0yEn+H9Fn6Cv/pDHfn7ZYZ5lUJmDXdZhsSDc5Z/l/RWewZdrWkGspC24XSnpvX4rkifwxOo25iWFkq3mVr7LYTCZKeVtbeEJoUACuVoPAASW8ekW382j+mv1P7MLhMC5xmRIbmnwWbgQA0SHXimc3UX1G6PtBKastNo6YfMeZ+XC+W1uSxRKuvqhCM6m+2ydrSanoNkHM1F/VTHNYhJK11EzSgKiKiCKpzc3JWFRAkN2huFYq3snzFiq8xJlOW/HkgL/FQWFyjDMvCenFWNElHNmgZUvM6Dqdkuc2mOf9aq5rZIKmmVD0KwMT3jzd6rYXtBFVrMRxzEcTXqqX1jiv8AKXpeZRxnQdUG+HkdUzGyTEKjifZLFI52mpSl0qeSdrZJtsEaMvL0VgUkqiS2g1twTkO90uaRrZV81ncHg2tAJkXG5v5JO0MK3KXAASqeKs7em5K4+vfzzsjxqIm3SxIWfw7pMbybIdFrrvD9FsODb4Gk3yt6UC6+kR+u34hrquIMGEeLXUK5rpplS/w1FtQr5DO5wCqLT72uyZgn4j04K5ArXTUcZJHiVR14oM8VT0CCZSa2VoKKBCAqIKIIUAUyqeJ280AcSTIW1PyRMMS2lZGG4WsRorEFbH6G6BdMyHUpYlTIXFzsjDMqWPqgfIJSSsdob77q1UxTOgvvsgLnaC/osHjYGVxH73inzv8AFZuHShvee6TE4cOEjfQqFrtNObHtHMeYdcV+i3lrwMqHoUXu0F0+JguacpF7HTzVTaGR815m+O1J2tG0p8WifMGDEAZU0ViR56nZc4mZbI5/mo1vmkaMprrqrVngZjC4ppF+Y2/RV9o4xoblBBJpSqxLiEjWmdpz0vJWf/I5L4+3t543RuxWLb7mYwm9zQLYmNkBsAJheLAYM+84ch9VkXOACm+mae2OJtaNt3LPeLTER7CXSE0GtnU9BsqgCDMim2y9AKtkdWWyMx1CbOJT0RJldUSPvSp+780DhszM20HzRc2VR1G6drpokoAHIgqqU6i3qrGlAyiiiDxdl4oRYEKILRIcN/8AqaD817JLn32OduCPgRBJ+8wx9mRrkNWH1HRdBBQI9s6i4SCITSx14JnOmZDqVHQ9qEWKBmNkEHsnzFiox870KD3Gwv6IEEQ+7rurWtl8ylEIS47osdoboC9s1WXm2u+ieI7QX9EBCpW51QBsISrWd51VEXs9h0lyor2ulQ9Dume6XM2XK+Kl/wDKIltFpjiWMd2cBTM7hY+ag7I/ir+X9Vkgze5/qiAdKh6FcJ0OCf8AVv3r/LHnsn+L/j+qUdmhtC5xGlB5LKvdJK1k6m/osR6fp4/1O9f5eSD2awVIJPE2XrZBaLADogKUNtCnc6S70wY6f41iGk2tPMqycvL0TNbOp6Ihs6nyS+7+X0XZqtVR8Nfw68E7nACaRozVNtB9UEaM1TbQK5UkSM9NQrM1JoK3CVRbUKDxfl9UZTvYW4qFsqjqEFgSmlfNMCtX+0Pt0YTBRXzAe9phwxqXvBFOQmeiDVP+pjN/iouEZjufNRBsHczvI/AYlsdkyz3YsOdHsNxzFwdxtNfTXZnaUPEQmxoLg5jxMOHxBGhGy+RAtl7o98MTgHzhOzQ3Ee0gumWPHD9138Q6zFEH1IyydaX3c+0bA4oAe0EGKbw4pDK8HWK3Bjw4TBBBsRUHkUAiCdr7owxLmma2ShCBlXE+KeaAagSG2XP1VqUhEIEif2QYJGt90+VQiaBkjwJJghlrNBU0SNehV6UiajUAfKVUjRK/TgrJVRIQFAqAIEIKQ3f3dFeogBLkgJVGXgcuyuImiggUKW3Jax3h79YLCg54zXvFocMiI48KUHVBsGIjtY1z3uDGMBc5xMgALkr5v+0jvecfiPCSMPCm2C00zbxHDd2mwlxU77d/sRjyW/8A54cHwwWm8rOiH8R4WHxOmzQRRRRBFFFEEXYfsmQUQdqbZMoogCgUUQFBRRAVFFEARUUQRBRRBEVFEEQUUQFAqKIIFFFEHLPtW9wrhD7nmVFEAUUUQRRRRB//2Q==;imageBorder=none;imageBackground=#000000;shadow=0;strokeWidth=2;aspect=fixed;" parent="WIyWlLk6GJQsqaUBKTNV-1" vertex="1">
          <mxGeometry x="127.75" y="276" width="75" height="75" as="geometry" />
        </mxCell>
        <mxCell id="yVTxIt7hRY4I177YX7u2-23" style="edgeStyle=orthogonalEdgeStyle;rounded=0;orthogonalLoop=1;jettySize=auto;html=1;flowAnimation=0;strokeColor=#000000;fontColor=default;labelBackgroundColor=#000000;" parent="WIyWlLk6GJQsqaUBKTNV-1" edge="1">
          <mxGeometry relative="1" as="geometry">
            <mxPoint x="632" y="313.84000000000003" as="targetPoint" />
            <mxPoint x="470" y="313.9" as="sourcePoint" />
          </mxGeometry>
        </mxCell>
        <mxCell id="yVTxIt7hRY4I177YX7u2-17" value="" style="image;aspect=fixed;html=1;points=[];align=center;fontSize=12;image=img/lib/azure2/devops/Change_Analysis.svg;shadow=0;imageBackground=none;labelBackgroundColor=none;" parent="WIyWlLk6GJQsqaUBKTNV-1" vertex="1">
          <mxGeometry x="398" y="284" width="76.35" height="76" as="geometry" />
        </mxCell>
        <mxCell id="yVTxIt7hRY4I177YX7u2-21" value="&lt;span style=&quot;font-family: Helvetica; font-size: 11px; font-style: normal; font-variant-ligatures: normal; font-variant-caps: normal; font-weight: 400; letter-spacing: normal; orphans: 2; text-align: center; text-indent: 0px; text-transform: none; widows: 2; word-spacing: 0px; -webkit-text-stroke-width: 0px; white-space: nowrap; text-decoration-thickness: initial; text-decoration-style: initial; text-decoration-color: initial; float: none; display: inline !important;&quot;&gt;Data Analysis&amp;nbsp;&lt;/span&gt;&lt;span style=&quot;font-size: 11px; text-align: center; text-wrap: nowrap;&quot;&gt;And processing&lt;/span&gt;" style="text;whiteSpace=wrap;html=1;rounded=0;shadow=0;fillColor=none;fontColor=#000000;labelBackgroundColor=none;" parent="WIyWlLk6GJQsqaUBKTNV-1" vertex="1">
          <mxGeometry x="355" y="361" width="157" height="30" as="geometry" />
        </mxCell>
        <mxCell id="yVTxIt7hRY4I177YX7u2-22" value="" style="outlineConnect=0;fontColor=#232F3E;gradientColor=none;fillColor=#C925D1;strokeColor=none;dashed=0;verticalLabelPosition=bottom;verticalAlign=top;align=center;html=1;fontSize=12;fontStyle=0;aspect=fixed;pointerEvents=1;shape=mxgraph.aws4.rds_sql_server_instance;" parent="WIyWlLk6GJQsqaUBKTNV-1" vertex="1">
          <mxGeometry x="639" y="284" width="78" height="78" as="geometry" />
        </mxCell>
        <mxCell id="yVTxIt7hRY4I177YX7u2-24" value="&lt;span style=&quot;font-family: Helvetica; font-size: 11px; font-style: normal; font-variant-ligatures: normal; font-variant-caps: normal; font-weight: 400; letter-spacing: normal; orphans: 2; text-indent: 0px; text-transform: none; widows: 2; word-spacing: 0px; -webkit-text-stroke-width: 0px; white-space: nowrap; text-decoration-thickness: initial; text-decoration-style: initial; text-decoration-color: initial; float: none; display: inline !important;&quot;&gt;Load Data and SQL Analysis&lt;/span&gt;" style="text;whiteSpace=wrap;html=1;fillColor=none;labelBackgroundColor=none;fontColor=#000000;align=center;" parent="WIyWlLk6GJQsqaUBKTNV-1" vertex="1">
          <mxGeometry x="468" y="290" width="155" height="19" as="geometry" />
        </mxCell>
        <mxCell id="yVTxIt7hRY4I177YX7u2-29" style="edgeStyle=orthogonalEdgeStyle;rounded=0;orthogonalLoop=1;jettySize=auto;html=1;entryX=0.605;entryY=0.959;entryDx=0;entryDy=0;entryPerimeter=0;strokeColor=#000000;" parent="WIyWlLk6GJQsqaUBKTNV-1" source="yVTxIt7hRY4I177YX7u2-22" edge="1">
          <mxGeometry relative="1" as="geometry">
            <mxPoint x="677.4000000000001" y="89.88999999999999" as="targetPoint" />
          </mxGeometry>
        </mxCell>
        <mxCell id="yVTxIt7hRY4I177YX7u2-27" value="&lt;span style=&quot;font-family: Helvetica; font-size: 11px; font-style: normal; font-variant-ligatures: normal; font-variant-caps: normal; font-weight: 400; letter-spacing: normal; orphans: 2; text-align: center; text-indent: 0px; text-transform: none; widows: 2; word-spacing: 0px; -webkit-text-stroke-width: 0px; white-space: nowrap; text-decoration-thickness: initial; text-decoration-style: initial; text-decoration-color: initial; float: none; display: inline !important;&quot;&gt;Data Visualization using Power BI&lt;/span&gt;" style="text;whiteSpace=wrap;html=1;fontColor=#000000;labelBackgroundColor=none;" parent="WIyWlLk6GJQsqaUBKTNV-1" vertex="1">
          <mxGeometry x="587" y="127" width="170" height="24" as="geometry" />
        </mxCell>
        <mxCell id="yVTxIt7hRY4I177YX7u2-105" value="&lt;span style=&quot;font-family: Helvetica; font-size: 11px; font-style: normal; font-variant-ligatures: normal; font-variant-caps: normal; font-weight: 400; letter-spacing: normal; orphans: 2; text-align: center; text-indent: 0px; text-transform: none; widows: 2; word-spacing: 0px; -webkit-text-stroke-width: 0px; white-space: nowrap; text-decoration-thickness: initial; text-decoration-style: initial; text-decoration-color: initial; float: none; display: inline !important;&quot;&gt;Data Cleaning&amp;nbsp;&lt;/span&gt;&lt;span style=&quot;font-size: 11px; text-align: center; text-wrap: nowrap;&quot;&gt;And Profiling&lt;/span&gt;" style="text;whiteSpace=wrap;html=1;rounded=0;shadow=0;fillColor=none;fontColor=#000000;labelBackgroundColor=none;" parent="WIyWlLk6GJQsqaUBKTNV-1" vertex="1">
          <mxGeometry x="224" y="289" width="156" height="22" as="geometry" />
        </mxCell>
        <mxCell id="yVTxIt7hRY4I177YX7u2-108" value="&lt;span style=&quot;font-family: Helvetica; font-size: 11px; font-style: normal; font-variant-ligatures: normal; font-variant-caps: normal; font-weight: 400; letter-spacing: normal; orphans: 2; text-indent: 0px; text-transform: none; widows: 2; word-spacing: 0px; -webkit-text-stroke-width: 0px; white-space: nowrap; text-decoration-thickness: initial; text-decoration-style: initial; text-decoration-color: initial; float: none; display: inline !important;&quot;&gt;Python&lt;/span&gt;" style="text;whiteSpace=wrap;html=1;fillColor=none;labelBackgroundColor=none;fontColor=#000000;align=center;" parent="WIyWlLk6GJQsqaUBKTNV-1" vertex="1">
          <mxGeometry x="130" y="359" width="70" height="23" as="geometry" />
        </mxCell>
        <mxCell id="yVTxIt7hRY4I177YX7u2-109" value="&lt;font color=&quot;#f85b0e&quot; face=&quot;Tw Cen MT&quot;&gt;&lt;span style=&quot;font-size: 30px;&quot;&gt;&lt;b&gt;DARAZ headphone data analysis of Bangladesh&lt;/b&gt;&lt;/span&gt;&lt;/font&gt;" style="text;whiteSpace=wrap;html=1;rounded=0;shadow=0;fillColor=none;fontColor=#99FF33;labelBackgroundColor=none;align=center;" parent="WIyWlLk6GJQsqaUBKTNV-1" vertex="1">
          <mxGeometry x="235" y="34" width="390" height="85" as="geometry" />
        </mxCell>
        <mxCell id="3Sdfdw5TQAfLUVa4n574-15" style="edgeStyle=orthogonalEdgeStyle;rounded=0;orthogonalLoop=1;jettySize=auto;html=1;" edge="1" parent="WIyWlLk6GJQsqaUBKTNV-1" source="3Sdfdw5TQAfLUVa4n574-0" target="yVTxIt7hRY4I177YX7u2-15">
          <mxGeometry relative="1" as="geometry" />
        </mxCell>
        <mxCell id="3Sdfdw5TQAfLUVa4n574-0" value="" style="sketch=0;pointerEvents=1;shadow=0;dashed=0;html=1;strokeColor=none;fillColor=#505050;labelPosition=center;verticalLabelPosition=bottom;verticalAlign=top;outlineConnect=0;align=center;shape=mxgraph.office.users.csv_file;" vertex="1" parent="WIyWlLk6GJQsqaUBKTNV-1">
          <mxGeometry x="130" y="16" width="70" height="55" as="geometry" />
        </mxCell>
        <mxCell id="3Sdfdw5TQAfLUVa4n574-10" style="edgeStyle=orthogonalEdgeStyle;rounded=0;orthogonalLoop=1;jettySize=auto;html=1;strokeColor=#FFFFFF;" edge="1" parent="WIyWlLk6GJQsqaUBKTNV-1">
          <mxGeometry relative="1" as="geometry">
            <mxPoint x="155" y="226" as="targetPoint" />
            <mxPoint x="155" y="226" as="sourcePoint" />
          </mxGeometry>
        </mxCell>
        <mxCell id="3Sdfdw5TQAfLUVa4n574-13" value="&lt;span style=&quot;font-family: Helvetica; font-size: 11px; font-style: normal; font-variant-ligatures: normal; font-variant-caps: normal; font-weight: 400; letter-spacing: normal; orphans: 2; text-align: center; text-indent: 0px; text-transform: none; widows: 2; word-spacing: 0px; -webkit-text-stroke-width: 0px; white-space: nowrap; text-decoration-thickness: initial; text-decoration-style: initial; text-decoration-color: initial; float: none; display: inline !important;&quot;&gt;Data download from CSV file&lt;/span&gt;" style="text;whiteSpace=wrap;html=1;fontColor=#000000;labelBackgroundColor=none;" vertex="1" parent="WIyWlLk6GJQsqaUBKTNV-1">
          <mxGeometry x="89" y="134" width="164" height="25" as="geometry" />
        </mxCell>
        <mxCell id="3Sdfdw5TQAfLUVa4n574-14" value="" style="image;aspect=fixed;html=1;points=[];align=center;fontSize=12;image=img/lib/azure2/analytics/Power_BI_Embedded.svg;" vertex="1" parent="WIyWlLk6GJQsqaUBKTNV-1">
          <mxGeometry x="652" y="15" width="52.25" height="69.67" as="geometry" />
        </mxCell>
        <mxCell id="3Sdfdw5TQAfLUVa4n574-16" value="&lt;span style=&quot;font-family: Helvetica; font-size: 11px; font-style: normal; font-variant-ligatures: normal; font-variant-caps: normal; font-weight: 400; letter-spacing: normal; orphans: 2; text-indent: 0px; text-transform: none; widows: 2; word-spacing: 0px; -webkit-text-stroke-width: 0px; white-space: nowrap; text-decoration-thickness: initial; text-decoration-style: initial; text-decoration-color: initial; float: none; display: inline !important;&quot;&gt;SQL Server&lt;/span&gt;" style="text;whiteSpace=wrap;html=1;fillColor=none;labelBackgroundColor=none;fontColor=#000000;align=center;" vertex="1" parent="WIyWlLk6GJQsqaUBKTNV-1">
          <mxGeometry x="640" y="363" width="70" height="23" as="geometry" />
        </mxCell>
      </root>
    </mxGraphModel>
  </diagram>
</mxfile>
